{
	"asset":{
		"version":"2.0",
		"generator":""
	},
	"scenes":[{
		"nodes":[0]
	}],
	"nodes":[{
		"name":"Extrude",
		"children":[1]
	},
	{
		"name":"Extrude",
		"mesh":0
	}],
	"meshes":[{
		"name":"Extrude",
		"primitives":[{
			"attributes":{
				"POSITION":1,
				"NORMAL":2,
				"TEXCOORD_0":3
			},
			"indices":0,
			"material":0
		}]
	}],
	"accessors":[{
		"bufferView":0,
		"type":"SCALAR",
		"componentType":5123,
		"count":237666,
		"byteOffset":0,
		"min":[0],
		"max":[43135]
	},
	{
		"bufferView":1,
		"type":"VEC3",
		"componentType":5126,
		"count":43136,
		"byteOffset":0,
		"min":[-0.5257633328437805,
		0.009301561862230301,
		-0.3379000127315521],
		"max":[1.3381068706512452,
		1.4338350296020508,
		0.03790000081062317]
	},
	{
		"bufferView":1,
		"type":"VEC3",
		"componentType":5126,
		"count":43136,
		"byteOffset":12,
		"min":[-1.0,
		-1.0,
		-1.0],
		"max":[1.0,
		1.0,
		1.0]
	},
	{
		"bufferView":1,
		"type":"VEC2",
		"componentType":5126,
		"count":43136,
		"byteOffset":24,
		"min":[-0.16350311040878297,
		-0.2113671600818634],
		"max":[1.1635031700134278,
		0.6633996963500977]
	}],
	"bufferViews":[{
		"buffer":0,
		"byteOffset":0,
		"target":34963,
		"byteLength":475332
	},
	{
		"buffer":0,
		"byteOffset":475332,
		"target":34962,
		"byteLength":1380352,
		"byteStride":32
	}],
	"buffers":[{
		"uri":"data:application/octet-stream;base64,",
		"byteLength":1855684
	}],
	"materials":[{
		"pbrMetallicRoughness":{
			"baseColorFactor":[0.8352941176470587,
			0.9882352941176471,
			0.2666666666666666,
			0.4000000119209288],
			"metallicFactor":1.0,
			"roughnessFactor":0.19000000000000004
		},
		"emissiveFactor":[1.0,
		1.0,
		1.0],
		"alphaMode":"BLEND",
		"doubleSided":true,
		"name":"Tinted Glass"
	}]
}